# xmcd
#
# Track frame offsets: 
#        180
#        24444
#        44783
#        68708
#        89060
#        104347
#        126739
#        150894
#        172571
#        194167
#
# Disc length: 2888 seconds
#
# Revision: 0
# Processed by: cddbd v1.5.2PL0 Copyright (c) Steve Scherf et al.
# Submitted via: ExactAudioCopy v1.0b3
#
DISCID=880b460a
DTITLE=Tien Bien, Bach Van - Tren Dong Song Que Huong
DYEAR=1994
DGENRE=
TTITLE0=Thanh Tuyen - Nu hoa nho
TTITLE1=Bach Van - Duyen tinh
TTITLE2=Thien Trang - Cay dang bo moi
TTITLE3=Tien Bien - Tren dong song que huong
TTITLE4=Thien Trang - Con thuong rau dang moc sau he
TTITLE5=Bach Van - Tinh den roi di
TTITLE6=Tien Bien - Thoi doi
TTITLE7=Thien Trang - Chuyen hop tan
TTITLE8=Bach Van - Go cua
TTITLE9=Tien Bien - Co ua
EXTD=
EXTT0=
EXTT1=
EXTT2=
EXTT3=
EXTT4=
EXTT5=
EXTT6=
EXTT7=
EXTT8=
EXTT9=
PLAYORDER=
